<svg xmlns="http://www.w3.org/2000/svg" width="168" height="50.565" viewBox="0 0 168 50.565">
    <g id="Group_1" data-name="Group 1" transform="translate(-499 -101.188)">
        <text id="Irfan" transform="translate(558 138)" fill="#151446" font-size="33" font-family="Montserrat-SemiBold, Montserrat" font-weight="600"><tspan x="0" y="0">Irfan</tspan></text>
        <g id="react" transform="translate(498.246 100.404)">
            <path id="Path_1" data-name="Path 1" d="M.754,25.976c0,4.247,4.148,8.212,10.686,10.447C10.134,43,11.206,48.3,14.786,50.359c3.679,2.122,9.161.653,14.364-3.895,5.071,4.364,10.2,6.082,13.773,4.012,3.676-2.128,4.794-7.785,3.452-14.564,6.81-2.252,10.62-5.632,10.62-9.936,0-4.149-4.155-7.738-10.606-9.959,1.445-7.059.221-12.228-3.507-14.378C39.288-.433,34.1,1.374,28.957,5.852,23.6,1.1,18.469-.353,14.745,1.8,11.155,3.882,10.13,9.276,11.44,15.971,5.122,18.174.754,21.844.754,25.976Z" transform="translate(0 0)" fill="#fff"/>
            <path id="Path_2" data-name="Path 2" d="M56.309,28.918q-.8-.274-1.608-.507.134-.546.248-1.1c1.217-5.908.421-10.668-2.3-12.234-2.605-1.5-6.867.064-11.171,3.809q-.636.555-1.244,1.141-.407-.39-.828-.764c-4.51-4-9.032-5.692-11.746-4.121-2.6,1.507-3.374,5.982-2.278,11.581q.164.832.369,1.654c-.64.182-1.258.375-1.849.581-5.288,1.844-8.665,4.733-8.665,7.73,0,3.1,3.625,6.2,9.133,8.083q.67.228,1.351.422-.221.886-.392,1.783c-1.045,5.5-.229,9.87,2.367,11.368,2.682,1.546,7.182-.043,11.565-3.874q.52-.454,1.042-.961.658.635,1.35,1.232C45.9,58.4,50.1,59.873,52.69,58.371c2.679-1.551,3.55-6.244,2.419-11.954q-.129-.654-.3-1.335.474-.14.929-.29c5.726-1.9,9.451-4.964,9.451-8.1,0-3.008-3.486-5.917-8.88-7.774Z" transform="translate(-11.286 -10.695)" fill="#53c1de"/>
            <path id="Path_3" data-name="Path 3" d="M62.586,50.269c-.273.09-.553.178-.839.262A50.079,50.079,0,0,0,59.218,44.2a50.059,50.059,0,0,0,2.431-6.235c.511.148,1.007.3,1.485.469,4.622,1.591,7.441,3.943,7.441,5.756,0,1.931-3.045,4.438-7.989,6.076Zm-2.051,4.065a18.067,18.067,0,0,1,.24,6.592,4.409,4.409,0,0,1-1.635,3.1c-1.574.911-4.94-.273-8.57-3.4q-.624-.537-1.256-1.145A50.139,50.139,0,0,0,53.5,54.168a49.81,49.81,0,0,0,6.765-1.043q.153.617.27,1.208ZM39.789,63.869a4.409,4.409,0,0,1-3.5.132c-1.576-.909-2.23-4.417-1.337-9.121q.159-.834.365-1.658a50.173,50.173,0,0,0,6.731.974,51.92,51.92,0,0,0,4.287,5.3q-.465.45-.952.876a18.071,18.071,0,0,1-5.591,3.5Zm-7.2-13.612a18.076,18.076,0,0,1-5.825-3.095A4.41,4.41,0,0,1,24.9,44.193c0-1.819,2.712-4.138,7.234-5.715q.851-.3,1.719-.541a51.172,51.172,0,0,0,2.434,6.308,51.95,51.95,0,0,0-2.465,6.4q-.621-.178-1.233-.386ZM35,33.817c-.939-4.8-.315-8.416,1.253-9.324,1.671-.967,5.366.412,9.26,3.87.249.221.5.452.749.692a51.132,51.132,0,0,0-4.255,5.265,52.135,52.135,0,0,0-6.665,1.036q-.191-.765-.343-1.539Zm21.545,5.32q-.732-1.265-1.519-2.5c1.594.2,3.121.469,4.554.8a45.518,45.518,0,0,1-1.6,4.3q-.692-1.314-1.437-2.6ZM47.759,30.58A45.629,45.629,0,0,1,50.7,34.128q-2.95-.139-5.9,0C45.765,32.847,46.759,31.658,47.759,30.58Zm-8.842,8.572q-.735,1.275-1.41,2.583c-.621-1.474-1.153-2.923-1.587-4.322,1.425-.319,2.945-.58,4.528-.777Q39.653,37.876,38.916,39.152ZM40.493,51.9a45.432,45.432,0,0,1-4.6-.74c.441-1.424.984-2.9,1.619-4.409q.678,1.309,1.416,2.584.753,1.3,1.568,2.565Zm7.325,6.054c-1.011-1.091-2.02-2.3-3.005-3.6q1.434.056,2.922.057,1.527,0,3.015-.067A45.378,45.378,0,0,1,47.818,57.957ZM58,46.676a45.312,45.312,0,0,1,1.677,4.394,45.284,45.284,0,0,1-4.659.794q.792-1.255,1.533-2.542.754-1.307,1.448-2.646Zm-3.3,1.58q-1.135,1.972-2.4,3.866c-1.482.106-3.013.16-4.574.16s-3.066-.048-4.522-.143q-1.293-1.889-2.441-3.872t-2.131-4.024q.986-2.053,2.124-4.027h0q1.137-1.973,2.422-3.856c1.485-.112,3.008-.171,4.548-.171s3.071.059,4.556.172q1.271,1.878,2.407,3.842t2.153,4.008q-1,2.059-2.146,4.043Zm4.4-23.827c1.672.965,2.323,4.854,1.272,9.956q-.1.5-.225.993a51.114,51.114,0,0,0-6.678-1.055,50.124,50.124,0,0,0-4.222-5.269Q49.815,28.513,50.4,28c3.688-3.209,7.134-4.476,8.7-3.571Z" transform="translate(-18.805 -18.196)" fill="#fff"/>
            <path id="Path_4" data-name="Path 4" d="M112.5,94.665a4.46,4.46,0,1,1-4.46,4.46,4.46,4.46,0,0,1,4.46-4.46" transform="translate(-83.574 -73.128)" fill="#53c1de"/>
        </g>
    </g>
</svg>
